<?xml version="1.0" encoding="UTF-8"?>
<svg width="366px" height="250px" viewBox="0 0 366 250" version="1.1" xmlns="http://www.w3.org/2000/svg" xmlns:xlink="http://www.w3.org/1999/xlink">
    <!-- Generator: Sketch 53 (72520) - https://sketchapp.com -->
    <title>Outlines Copy 2</title>
    <desc>Created with Sketch.</desc>
    <g id="Outlines-Copy-2" stroke="none" stroke-width="1" fill="none" fill-rule="evenodd">
        <path d="M135.791709,113.7 L150.141255,113.7 C147.784747,136.458073 140.578313,155.125089 128.521834,169.701432 C121.556734,178.128207 113.27261,184.553527 103.669214,188.977584 C94.0658181,193.401641 83.6710894,195.613636 72.4847162,195.613636 C58.5545155,195.613636 45.6798262,191.663645 33.860262,183.763543 C22.0406978,175.863441 12.7540367,164.961464 6,151.057285 L18.9803493,144.737235 C24.6790678,156.324051 32.1717148,165.277366 41.4585153,171.597447 C50.7453157,177.917528 61.0872793,181.077522 72.4847162,181.077522 C91.058317,181.077522 106.043611,174.125537 117.441048,160.221357 C127.443044,148.274115 133.559901,132.767095 135.791709,113.7 Z M136.753275,88.7 L136.753275,6 L151,6 L151,88.7 L136.753275,88.7 Z M235.944784,113.7 L253.192045,113.7 L320,192.838124 L302.703777,192.838124 L235.944784,113.7 Z M235.183095,113.7 L175,196 L175,113.7 L187.972167,113.7 L187.972167,155.757943 L218.655136,113.7 L235.183095,113.7 Z M175,88.7 L175,6 L187.972167,6 L187.972167,88.7 L175,88.7 Z M236.893647,88.7 L297.22664,6 L313.658052,6 L253.068639,88.7 L236.893647,88.7 Z M352.5,196 C347.80558,196 344,192.19442 344,187.5 C344,182.80558 347.80558,179 352.5,179 C357.19442,179 361,182.80558 361,187.5 C361,192.19442 357.19442,196 352.5,196 Z" id="Combined-Shape" fill="#4A4A4A"></path>
        <path d="M35.08,249.92 C32.9679894,249.92 31.016009,249.320006 29.224,248.12 C27.431991,246.919994 26.0240051,245.264011 25,243.152 L26.968,242.192 C27.8320043,243.952009 28.967993,245.311995 30.376,246.272 C31.784007,247.232005 33.3519914,247.712 35.08,247.712 C37.8960141,247.712 40.1679914,246.656011 41.896,244.544 C43.8480098,242.207988 44.824,238.976021 44.824,234.848 L44.824,218.384 L46.984,218.384 L46.984,234.848 C46.984,239.520023 45.8480114,243.231986 43.576,245.984 C42.5199947,247.264006 41.2640073,248.239997 39.808,248.912 C38.3519927,249.584003 36.7760085,249.92 35.08,249.92 Z M107.928,241.664 L104.232,249.584 L101.832,249.584 L116.52,218 L130.392,249.584 L128.04,249.584 L124.536,241.664 L107.928,241.664 Z M116.424,223.328 L108.936,239.504 L123.576,239.504 L116.424,223.328 Z M199.784,249.92 C196.935986,249.92 194.296012,249.200007 191.864,247.76 C189.431988,246.319993 187.512007,244.376012 186.104,241.928 C184.695993,239.479988 183.992,236.816014 183.992,233.936 C183.992,231.055986 184.695993,228.400012 186.104,225.968 C187.512007,223.535988 189.431988,221.600007 191.864,220.16 C194.296012,218.719993 196.935986,218 199.784,218 C201.992011,218 204.11199,218.455995 206.144,219.368 C208.17601,220.280005 209.959992,221.567992 211.496,223.232 L209.816,224.72 C208.535994,223.279993 207.024009,222.160004 205.28,221.36 C203.535991,220.559996 201.70401,220.16 199.784,220.16 C197.319988,220.16 195.04801,220.775994 192.968,222.008 C190.88799,223.240006 189.232006,224.911989 188,227.024 C186.767994,229.136011 186.152,231.439988 186.152,233.936 C186.152,236.432012 186.767994,238.735989 188,240.848 C189.232006,242.960011 190.88799,244.631994 192.968,245.864 C195.04801,247.096006 197.319988,247.712 199.784,247.712 C201.83201,247.712 203.775991,247.264004 205.616,246.368 C207.456009,245.471996 209.031993,244.224008 210.344,242.624 L212.072,243.968 C210.567992,245.856009 208.744011,247.319995 206.6,248.36 C204.455989,249.400005 202.184012,249.92 199.784,249.92 Z M293.224,249.584 L290.344,249.584 L279.16,236.288 L269.08,250.112 L269.08,218.384 L271.24,218.384 L271.24,243.392 L289.432,218.384 L292.168,218.384 L280.456,234.416 L293.224,249.584 Z M352.968,249.584 L350.808,249.584 L350.808,218.384 L352.968,218.384 L352.968,249.584 Z" id="JACKI" fill="#4A4A4A" fill-rule="nonzero"></path>
    </g>
</svg>